<?xml version="1.0" standalone="no"?>
<!DOCTYPE svg PUBLIC "-//W3C//DTD SVG 20010904//EN"
 "http://www.w3.org/TR/2001/REC-SVG-20010904/DTD/svg10.dtd">
<svg version="1.0" xmlns="http://www.w3.org/2000/svg"
 width="1280.000000pt" height="1280.000000pt" viewBox="0 0 1280.000000 1280.000000"
 preserveAspectRatio="xMidYMid meet">
<metadata>
Created by potrace 1.14, written by Peter Selinger 2001-2017
</metadata>
<g transform="translate(0.000000,1280.000000) scale(0.100000,-0.100000)"
fill="#000000" stroke="none">
<path d="M5985 12629 c-1284 -70 -2491 -532 -3496 -1337 -906 -726 -1601
-1721 -1968 -2819 -232 -696 -336 -1420 -310 -2163 8 -233 9 -242 35 -475 93
-851 380 -1697 830 -2445 985 -1638 2684 -2726 4574 -2929 399 -43 1006 -41
1365 4 650 82 1235 243 1783 489 1291 581 2347 1592 2973 2846 362 725 563
1453 630 2285 18 220 15 731 -5 955 -121 1329 -613 2492 -1480 3500 -119 138
-462 482 -601 601 -762 654 -1621 1097 -2575 1327 -559 136 -1178 192 -1755
161z m-1545 -420 c-34 -14 -35 -15 -11 -47 12 -17 21 -35 21 -41 0 -6 5 -11
10 -11 6 0 10 -5 10 -11 0 -6 8 -23 19 -37 10 -15 28 -43 39 -63 42 -76 47
-84 52 -89 3 -3 10 -14 16 -25 46 -87 60 -111 64 -115 3 -3 21 -34 39 -70 19
-36 45 -83 58 -105 25 -44 239 -474 271 -545 11 -25 30 -67 42 -95 39 -87 47
-107 95 -230 26 -66 52 -131 57 -145 6 -14 14 -34 19 -45 15 -37 108 -320 125
-380 65 -237 78 -291 108 -445 10 -47 21 -103 26 -125 6 -28 6 -42 -3 -48 -7
-4 6 -5 28 -2 53 7 41 2 -100 -40 -410 -123 -842 -365 -1155 -646 -453 -408
-740 -856 -930 -1455 -22 -71 -38 -113 -35 -92 l6 36 -53 6 c-29 4 -71 11 -93
16 -22 4 -67 14 -100 20 -33 7 -71 16 -85 20 -14 4 -50 13 -80 20 -30 6 -68
16 -85 21 -16 5 -64 18 -105 30 -86 25 -315 100 -381 124 -24 9 -80 30 -124
47 -44 16 -89 34 -100 39 -11 4 -69 29 -130 55 -226 95 -393 174 -650 309 -60
32 -130 69 -155 83 -25 14 -70 38 -100 55 -30 17 -66 38 -80 47 -14 9 -32 20
-40 23 -8 4 -37 20 -65 37 -27 17 -65 38 -83 47 -17 9 -32 20 -32 25 0 4 -5 8
-11 8 -6 0 -30 14 -54 30 -46 32 -65 37 -65 18 0 -6 -2 -9 -5 -6 -6 6 52 180
107 323 141 362 357 776 584 1118 614 923 1493 1672 2496 2126 150 68 404 168
568 224 50 17 90 22 50 6z m1157 -2665 c-3 -3 -12 -4 -19 -1 -8 3 -5 6 6 6 11
1 17 -2 13 -5z m1068 -768 c648 -114 1185 -460 1540 -995 387 -585 479 -1332
245 -2006 -45 -129 -159 -361 -236 -478 -324 -494 -822 -845 -1389 -977 -174
-40 -304 -54 -515 -54 -375 0 -675 69 -1000 230 -248 123 -400 233 -601 433
-189 189 -317 366 -432 596 -429 864 -258 1922 422 2604 190 191 380 326 616
442 216 105 458 180 670 208 44 6 94 13 110 15 72 10 484 -3 570 -18z m-6045
-413 c-11 -17 -11 -17 -6 0 3 10 6 24 7 30 0 9 2 9 5 0 3 -7 0 -20 -6 -30z
m2677 -1135 c-3 -7 -5 -2 -5 12 0 14 2 19 5 13 2 -7 2 -19 0 -25z m6030 -1420
c-3 -8 -6 -5 -6 6 -1 11 2 17 5 13 3 -3 4 -12 1 -19z m-12 -54 c-4 -23 -3 -34
4 -30 5 4 29 2 53 -3 24 -5 70 -15 103 -21 73 -14 137 -28 188 -41 20 -5 54
-13 75 -18 194 -48 612 -186 759 -252 24 -10 47 -19 51 -19 5 0 22 -6 38 -14
16 -8 45 -21 64 -29 19 -8 56 -24 83 -36 26 -11 68 -30 95 -42 67 -29 536
-261 542 -268 3 -3 30 -19 60 -35 68 -35 119 -64 188 -105 29 -17 57 -31 62
-31 6 0 10 -4 10 -10 0 -5 4 -10 10 -10 13 0 184 -102 188 -112 2 -5 9 -8 16
-8 7 0 25 -11 39 -24 29 -27 29 -27 47 27 6 21 14 37 16 34 2 -2 -18 -69 -45
-148 -234 -685 -580 -1295 -1065 -1879 -149 -180 -547 -580 -721 -724 -491
-408 -1005 -722 -1555 -949 -148 -61 -368 -141 -415 -151 -30 -6 -30 -6 -6 8
19 11 21 15 10 22 -8 5 -21 20 -28 34 -8 14 -46 76 -83 137 -37 62 -68 117
-68 123 0 5 -4 10 -9 10 -5 0 -11 8 -14 18 -5 15 -20 42 -97 177 -102 180
-289 559 -377 765 -8 19 -21 48 -29 64 -8 16 -14 33 -14 38 0 5 -9 28 -20 50
-11 23 -20 45 -20 50 0 5 -8 27 -19 51 -10 23 -24 58 -31 77 -7 19 -16 44 -20
55 -33 81 -71 195 -109 325 -12 41 -26 86 -31 100 -5 14 -23 84 -40 155 -17
72 -35 146 -39 165 -23 92 -31 132 -31 153 0 12 -5 39 -11 60 -10 36 -12 38
-42 31 -62 -13 -21 4 88 35 584 171 1120 522 1512 991 278 332 482 712 605
1127 33 115 46 142 33 77z m-2282 -2241 c-7 -2 -19 -2 -25 0 -7 3 -2 5 12 5
14 0 19 -2 13 -5z"/>
<path d="M6065 8685 c-512 -61 -963 -285 -1320 -656 -111 -115 -158 -174 -246
-307 -254 -383 -387 -891 -350 -1333 6 -79 18 -182 26 -229 139 -798 711
-1451 1485 -1696 410 -129 890 -129 1300 0 662 210 1185 722 1404 1376 204
610 131 1267 -202 1820 -111 184 -314 417 -482 553 -452 365 -1046 539 -1615
472z m58 -12 c-7 -2 -19 -2 -25 0 -7 3 -2 5 12 5 14 0 19 -2 13 -5z m400 0
c-7 -2 -19 -2 -25 0 -7 3 -2 5 12 5 14 0 19 -2 13 -5z m477 -183 c18 -12 2
-12 -25 0 -13 6 -15 9 -5 9 8 0 22 -4 30 -9z m63 -46 c113 -43 299 -140 385
-200 35 -25 66 -43 69 -40 3 2 -20 21 -51 42 -56 37 -80 62 -28 29 56 -36 92
-67 87 -74 -2 -5 13 -21 34 -35 21 -15 49 -38 61 -51 29 -31 50 -33 24 -2 -17
20 -17 20 8 -2 15 -13 26 -27 23 -31 -2 -3 44 -53 103 -111 58 -57 98 -94 88
-81 -29 34 -14 26 20 -10 16 -18 21 -26 12 -19 -26 19 -22 -2 4 -25 12 -10 18
-13 14 -6 -11 19 -1 14 20 -10 15 -19 16 -20 2 -9 -26 19 -22 -2 4 -25 12 -10
18 -13 14 -6 -10 18 -1 15 15 -5 12 -14 12 -16 0 -9 -9 6 -12 4 -9 -5 3 -8 10
-14 16 -14 5 0 14 -4 19 -9 5 -5 2 -6 -6 -1 -9 5 -12 3 -9 -6 3 -8 10 -13 16
-12 5 1 16 -5 24 -15 12 -15 11 -16 -4 -3 -11 8 -18 9 -18 3 0 -11 19 -27 32
-27 3 0 10 -4 15 -9 5 -5 2 -6 -6 -1 -9 5 -12 3 -9 -6 3 -8 10 -14 16 -14 5 0
14 -4 19 -9 5 -5 3 -6 -4 -2 -20 11 -16 1 38 -94 86 -151 184 -400 203 -516
l7 -41 -45 -12 c-79 -20 -84 -18 -101 47 -37 134 -84 255 -145 377 -36 72 -70
130 -77 130 -6 0 -15 4 -20 9 -5 5 -3 6 5 2 19 -11 14 6 -14 47 -14 21 -29 35
-34 32 -5 -3 -12 0 -16 6 -5 8 -3 9 6 4 8 -5 11 -3 8 6 -3 8 -10 14 -15 14 -6
0 -15 4 -20 9 -5 5 -3 6 5 2 18 -11 15 9 -5 25 -11 10 -14 10 -9 2 12 -20 1
-15 -20 9 -15 19 -16 20 -1 9 25 -19 21 2 -5 25 -12 10 -18 13 -14 7 11 -20 1
-15 -20 9 -15 19 -16 20 -1 9 30 -24 18 4 -15 35 -28 25 -30 25 -13 4 10 -14
-27 20 -83 74 -56 55 -99 102 -97 105 7 6 -36 51 -48 51 -6 0 -2 -10 9 -22 10
-12 -2 -5 -28 16 -26 21 -46 42 -43 46 13 21 -272 188 -427 249 -78 32 -117
40 -88 20 12 -8 12 -10 1 -7 -8 2 -16 13 -18 24 -4 24 27 134 39 134 5 0 50
-16 101 -36z m-13 26 c8 -5 11 -10 5 -10 -5 0 -17 5 -25 10 -8 5 -10 10 -5 10
6 0 17 -5 25 -10z m50 -20 c8 -5 11 -10 5 -10 -5 0 -17 5 -25 10 -8 5 -10 10
-5 10 6 0 17 -5 25 -10z m50 -20 c8 -5 11 -10 5 -10 -5 0 -17 5 -25 10 -8 5
-10 10 -5 10 6 0 17 -5 25 -10z m45 -20 c3 -6 -1 -7 -9 -4 -18 7 -21 14 -7 14
6 0 13 -4 16 -10z m40 -20 c3 -6 -1 -7 -9 -4 -18 7 -21 14 -7 14 6 0 13 -4 16
-10z m40 -20 c3 -6 -1 -7 -9 -4 -18 7 -21 14 -7 14 6 0 13 -4 16 -10z m75 -46
c0 -2 -9 0 -20 6 -11 6 -20 13 -20 16 0 2 9 0 20 -6 11 -6 20 -13 20 -16z
m-982 -1 c-32 -2 -84 -2 -115 0 -32 2 -6 3 57 3 63 0 89 -1 58 -3z m-219 -7
c-2 -2 -33 -6 -69 -9 -41 -3 -54 -2 -35 3 31 8 112 13 104 6z m426 -6 c19 -5
6 -6 -35 -3 -36 3 -67 7 -69 9 -8 7 73 2 104 -6z m420 0 c13 -6 15 -9 5 -9 -8
0 -22 4 -30 9 -18 12 -2 12 25 0z m405 -16 c0 -2 -9 0 -20 6 -11 6 -20 13 -20
16 0 2 9 0 20 -6 11 -6 20 -13 20 -16z m-808 -9 c236 -38 480 -129 657 -245
35 -22 65 -39 68 -37 2 3 -12 15 -31 27 -33 20 -53 41 -23 24 39 -23 66 -46
64 -56 -1 -6 4 -13 12 -16 9 -3 11 0 6 9 -5 8 -4 11 1 6 5 -5 8 -12 7 -15 -2
-10 18 -32 29 -32 6 0 4 8 -3 18 -13 15 -12 16 4 3 9 -8 15 -16 12 -19 -7 -7
15 -32 27 -32 6 0 4 8 -3 18 -11 14 -9 13 9 -2 12 -11 20 -22 17 -24 -7 -7 35
-52 48 -52 6 0 2 10 -9 23 -10 12 3 2 29 -23 53 -50 65 -70 15 -24 l-33 29 34
-37 c19 -21 39 -34 44 -31 6 3 7 2 4 -4 -3 -5 10 -25 31 -44 l37 -34 -30 35
c-23 27 -19 25 18 -10 45 -42 68 -72 27 -35 -11 10 -20 14 -20 8 0 -13 35 -45
42 -38 3 3 13 -5 24 -17 15 -18 16 -20 2 -9 -26 19 -22 -2 4 -25 12 -10 18
-13 14 -6 -11 19 -1 14 20 -10 15 -19 16 -20 2 -9 -11 8 -18 9 -18 3 0 -11 19
-27 32 -27 3 0 10 -4 15 -9 5 -5 2 -6 -6 -1 -9 5 -12 3 -9 -6 3 -8 10 -14 15
-14 6 0 15 -4 20 -9 5 -5 2 -6 -6 -1 -9 5 -12 3 -9 -6 3 -8 10 -14 15 -14 6 0
15 -4 20 -9 5 -5 2 -6 -6 -1 -9 5 -12 3 -9 -6 3 -8 10 -14 15 -14 6 0 15 -4
20 -9 5 -5 3 -6 -4 -2 -17 10 -16 -5 2 -30 32 -46 124 -244 153 -329 36 -105
66 -228 83 -340 17 -113 15 -398 -5 -515 -42 -253 -131 -486 -263 -689 -30
-46 -52 -85 -50 -88 3 -2 29 34 58 80 76 119 81 126 63 87 -22 -45 -110 -176
-125 -186 -8 -5 -9 -3 -4 7 5 8 -1 5 -13 -5 -26 -22 -30 -45 -5 -25 13 10 12
6 -4 -16 -25 -36 -63 -72 -63 -59 0 4 -20 -12 -45 -36 -25 -24 -45 -49 -45
-54 0 -6 20 10 45 34 25 24 45 42 45 39 0 -2 -39 -43 -87 -89 -48 -47 -68 -64
-43 -37 24 26 40 47 34 47 -13 0 -96 -85 -89 -91 3 -3 -7 -16 -22 -30 -25 -22
-26 -22 -9 -1 11 12 15 22 9 22 -13 0 -45 -35 -38 -42 3 -3 -3 -11 -12 -19
-16 -13 -17 -12 -4 4 7 9 9 17 3 17 -13 0 -33 -25 -26 -33 7 -6 -72 -65 -131
-98 -58 -32 -41 -18 49 41 43 28 76 53 74 55 -3 3 -42 -20 -89 -51 -203 -135
-457 -231 -711 -269 -126 -19 -390 -19 -516 0 -238 36 -455 114 -661 238 -52
32 -96 55 -98 53 -2 -2 12 -14 31 -26 33 -20 53 -41 24 -24 -37 21 -68 47 -64
52 7 7 -13 32 -26 32 -6 0 -4 -8 3 -17 13 -16 12 -17 -4 -4 -9 8 -15 16 -12
19 7 7 -15 32 -27 32 -6 0 -4 -8 3 -17 13 -16 12 -17 -4 -4 -9 8 -15 16 -12
19 7 7 -25 42 -38 42 -6 0 -2 -9 8 -20 10 -11 16 -20 13 -20 -2 0 -17 14 -34
32 -16 18 -20 26 -9 18 11 -7 -27 34 -85 93 -94 97 -134 133 -100 92 24 -28 4
-15 -26 17 -16 18 -19 24 -6 14 12 -11 22 -15 22 -9 0 13 -35 45 -42 38 -3 -3
-11 3 -19 12 -13 16 -12 17 4 4 9 -7 17 -9 17 -3 0 13 -25 33 -33 26 -3 -3
-21 15 -39 41 -46 65 -71 105 -65 105 2 0 25 -32 51 -71 26 -39 49 -69 52 -67
2 3 -21 42 -52 89 -207 313 -309 702 -284 1086 12 178 37 304 92 467 25 76
119 276 159 337 31 49 36 64 17 53 -8 -4 -10 -3 -5 2 5 5 14 9 19 9 6 0 13 6
16 14 3 9 0 11 -8 6 -9 -5 -11 -4 -6 4 4 6 11 9 16 6 8 -5 60 57 60 72 0 4
-14 -8 -32 -27 l-31 -35 25 35 c14 19 29 35 34 35 15 0 34 16 34 27 0 6 -7 5
-17 -3 -15 -11 -14 -9 1 9 11 12 22 20 24 17 7 -7 52 35 52 48 0 6 -12 0 -27
-13 -16 -14 19 24 77 83 57 59 107 107 109 107 2 0 -6 -11 -19 -25 -13 -14
-19 -25 -13 -25 13 0 55 45 48 52 -3 2 5 13 17 24 18 15 20 16 9 2 -19 -26 2
-22 25 4 10 12 13 18 7 14 -20 -11 -15 -1 9 20 19 15 20 16 9 2 -7 -10 -9 -18
-3 -18 13 0 33 25 26 32 -3 3 0 9 7 14 8 5 10 3 4 -6 -5 -8 -3 -11 6 -8 8 3
14 10 14 16 0 5 4 14 9 19 5 5 6 2 1 -6 -5 -9 -3 -12 6 -9 8 3 14 10 14 16 0
5 4 14 9 19 5 5 6 2 1 -6 -5 -9 -3 -12 6 -9 8 3 14 10 14 16 0 5 4 14 9 19 5
5 6 3 2 -4 -11 -20 1 -16 73 26 130 77 317 149 473 185 56 12 164 29 268 40
66 8 325 -4 412 -19z m-612 5 c-14 -4 -34 -8 -45 -8 -16 0 -15 2 5 8 14 4 34
8 45 8 16 0 15 -2 -5 -8z m705 0 c14 -7 8 -8 -20 -3 -22 3 -42 7 -44 9 -9 8
45 2 64 -6z m395 -15 c14 -8 21 -14 15 -14 -5 0 -21 6 -35 14 -14 8 -20 14
-15 14 6 0 21 -6 35 -14z m-1195 -5 c-11 -5 -27 -9 -35 -9 -9 0 -8 4 5 9 11 5
27 9 35 9 9 0 8 -4 -5 -9z m880 0 c13 -5 14 -9 5 -9 -8 0 -24 4 -35 9 -13 5
-14 9 -5 9 8 0 24 -4 35 -9z m-950 -20 c-11 -5 -27 -9 -35 -9 -9 0 -8 4 5 9
11 5 27 9 35 9 9 0 8 -4 -5 -9z m1020 0 c13 -5 14 -9 5 -9 -8 0 -24 4 -35 9
-13 5 -14 9 -5 9 8 0 24 -4 35 -9z m335 -15 c28 -14 50 -28 50 -30 0 -5 -99
42 -109 51 -12 11 15 1 59 -21z m-1425 -5 c-27 -12 -43 -12 -25 0 8 5 22 9 30
9 10 0 8 -3 -5 -9z m1155 0 c18 -12 2 -12 -25 0 -13 6 -15 9 -5 9 8 0 22 -4
30 -9z m-1210 -20 c-8 -5 -19 -10 -25 -10 -5 0 -3 5 5 10 8 5 20 10 25 10 6 0
3 -5 -5 -10z m1260 0 c8 -5 11 -10 5 -10 -5 0 -17 5 -25 10 -8 5 -10 10 -5 10
6 0 17 -5 25 -10z m-1310 -20 c-8 -5 -19 -10 -25 -10 -5 0 -3 5 5 10 8 5 20
10 25 10 6 0 3 -5 -5 -10z m1360 0 c8 -5 11 -10 5 -10 -5 0 -17 5 -25 10 -8 5
-10 10 -5 10 6 0 17 -5 25 -10z m290 -26 c0 -2 -13 2 -30 11 -16 9 -30 18 -30
21 0 2 14 -2 30 -11 17 -9 30 -18 30 -21z m321 -21 c8 -9 -5 -2 -28 17 -24 18
-43 35 -43 37 0 7 56 -35 71 -54z m-2012 33 c-10 -9 -149 -76 -149 -71 0 6
131 74 144 75 5 0 7 -2 5 -4z m1501 -31 c39 -19 70 -38 70 -40 0 -5 -139 62
-149 71 -13 12 18 0 79 -31z m283 -37 c31 -21 57 -41 57 -43 0 -3 -31 16 -70
41 -38 26 -70 49 -70 51 0 5 12 -2 83 -49z m-163 -29 c17 -13 18 -17 5 -10
-33 17 -51 31 -40 31 6 0 21 -10 35 -21z m-1800 6 c0 -2 -10 -9 -22 -15 -22
-11 -22 -10 -4 4 21 17 26 19 26 11z m2350 -82 l75 -78 -77 75 c-72 69 -83 80
-75 80 1 0 36 -35 77 -77z m140 -434 c15 -28 5 -23 -15 7 -9 15 -12 23 -6 20
6 -4 16 -16 21 -27z m210 -24 c0 -11 -14 7 -31 40 -7 13 -3 12 10 -5 11 -14
21 -29 21 -35z m46 -86 c19 -39 34 -73 32 -75 -2 -2 -21 30 -41 71 -20 41 -35
75 -32 75 3 0 21 -32 41 -71z m-195 6 c7 -13 3 -12 -10 5 -11 14 -21 30 -21
35 0 11 14 -7 31 -40z m-3192 -12 c-12 -21 -27 -42 -32 -48 -11 -11 9 29 31
63 24 37 25 25 1 -15z m3081 -13 c6 -11 8 -20 6 -20 -3 0 -10 9 -16 20 -6 11
-8 20 -6 20 3 0 10 -9 16 -20z m134 -16 c3 -8 2 -12 -4 -9 -6 3 -10 10 -10 16
0 14 7 11 14 -7z m-3261 -49 c-3 -9 -8 -14 -10 -11 -3 3 -2 9 2 15 9 16 15 13
8 -4z m3172 -16 c9 -17 15 -33 13 -35 -3 -2 -12 12 -21 31 -21 43 -13 47 8 4z
m313 -14 c-3 -3 -9 2 -12 12 -6 14 -5 15 5 6 7 -7 10 -15 7 -18z m-3505 -10
c-3 -9 -8 -14 -10 -11 -3 3 -2 9 2 15 9 16 15 13 8 -4z m3527 -40 c0 -5 -5 -3
-10 5 -5 8 -10 20 -10 25 0 6 5 3 10 -5 5 -8 10 -19 10 -25z m-180 -10 c0 -5
-5 -3 -10 5 -5 8 -10 20 -10 25 0 6 5 3 10 -5 5 -8 10 -19 10 -25z m-3367 10
c-3 -9 -8 -14 -10 -11 -3 3 -2 9 2 15 9 16 15 13 8 -4z m3245 -10 c-3 -3 -9 2
-12 12 -6 14 -5 15 5 6 7 -7 10 -15 7 -18z m322 -40 c0 -5 -5 -3 -10 5 -5 8
-10 20 -10 25 0 6 5 3 10 -5 5 -8 10 -19 10 -25z m-295 -11 c15 -37 19 -51 10
-43 -8 9 -35 79 -30 79 2 0 12 -16 20 -36z m115 1 c0 -5 -5 -3 -10 5 -5 8 -10
20 -10 25 0 6 5 3 10 -5 5 -8 10 -19 10 -25z m-3424 -22 c-8 -15 -15 -25 -16
-21 0 12 23 58 27 54 3 -2 -2 -17 -11 -33z m3623 -28 c0 -5 -4 -3 -9 5 -5 8
-9 22 -9 30 0 16 17 -16 18 -35z m-179 0 c0 -5 -5 -3 -10 5 -5 8 -10 20 -10
25 0 6 5 3 10 -5 5 -8 10 -19 10 -25z m-3476 -59 c-9 -26 -18 -45 -20 -43 -2
2 3 25 12 51 9 26 18 45 20 43 2 -2 -3 -25 -12 -51z m3391 -26 c14 -40 25 -78
24 -84 0 -10 -35 82 -54 146 -17 55 7 5 30 -62z m104 25 c0 -5 -4 -3 -9 5 -5
8 -9 22 -9 30 0 16 17 -16 18 -35z m180 0 c0 -5 -4 -3 -9 5 -5 8 -9 22 -9 30
0 16 17 -16 18 -35z m-160 -65 c0 -9 -4 -8 -9 5 -5 11 -9 27 -9 35 0 9 4 8 9
-5 5 -11 9 -27 9 -35z m180 -10 c0 -9 -4 -8 -9 5 -5 11 -9 27 -9 35 0 9 4 8 9
-5 5 -11 9 -27 9 -35z m-3728 -21 c-5 -13 -10 -19 -10 -12 -1 15 10 45 15 40
3 -2 0 -15 -5 -28z m3556 -11 c-3 -8 -6 -5 -6 6 -1 11 2 17 5 13 3 -3 4 -12 1
-19z m180 -10 c-3 -8 -6 -5 -6 6 -1 11 2 17 5 13 3 -3 4 -12 1 -19z m-269 -63
c0 -16 -2 -15 -8 5 -11 34 -11 60 0 35 5 -11 8 -29 8 -40z m-3487 9 c-5 -16
-10 -21 -10 -12 -1 18 10 51 15 45 2 -1 -1 -16 -5 -33z m3689 -4 c-34 -11 -60
-11 -35 0 11 5 29 8 40 8 16 0 15 -2 -5 -8z m-3703 -62 c-3 -8 -6 -5 -6 6 -1
11 2 17 5 13 3 -3 4 -12 1 -19z m3522 -37 c1 -35 -5 -22 -12 24 -5 28 -4 34 3
20 5 -11 9 -31 9 -44z m-3724 39 c27 -7 27 -8 5 -8 -14 0 -36 4 -50 8 -20 6
-21 8 -5 8 11 0 34 -4 50 -8z m-88 -32 c-3 -8 -6 -5 -6 6 -1 11 2 17 5 13 3
-3 4 -12 1 -19z m90 11 c35 -6 63 -16 63 -23 0 -6 -5 -38 -10 -71 -16 -92 -13
-395 5 -515 29 -204 89 -397 177 -574 62 -127 87 -168 98 -161 5 3 12 0 16 -6
4 -8 3 -9 -4 -5 -17 10 -15 -7 4 -30 13 -16 15 -16 10 -1 -7 24 1 21 15 -4 8
-15 8 -19 0 -15 -6 4 -11 3 -11 -2 0 -13 25 -33 32 -26 3 3 16 -10 28 -28 l22
-33 -26 30 c-14 17 -26 26 -26 22 0 -16 41 -67 49 -62 5 2 17 -5 27 -18 l19
-22 -22 19 c-13 11 -23 15 -23 9 0 -13 35 -45 42 -38 2 3 15 -7 29 -22 22 -25
22 -26 2 -9 -13 11 -23 15 -23 10 0 -5 37 -45 82 -89 75 -72 77 -74 23 -15
l-60 65 62 -59 c34 -33 60 -62 58 -65 -7 -6 46 -61 58 -61 6 0 2 10 -9 23 -17
20 -16 20 9 -2 15 -14 25 -27 22 -29 -7 -7 25 -42 38 -42 6 0 2 10 -9 23 l-19
22 22 -19 c13 -10 20 -22 18 -27 -5 -8 46 -49 62 -49 4 0 -5 12 -22 26 l-30
26 33 -22 c18 -12 30 -26 27 -31 -9 -13 99 -80 248 -154 187 -93 372 -151 577
-180 124 -17 411 -20 512 -4 38 6 74 7 78 2 4 -4 11 -35 15 -69 l7 -60 -90
-12 c-125 -17 -385 -15 -526 4 -275 36 -577 143 -801 285 -64 40 -81 47 -69
27 4 -7 3 -8 -5 -4 -6 4 -9 11 -6 16 3 5 -8 18 -24 29 -41 29 -52 26 -16 -5
l30 -26 -33 22 c-18 12 -31 25 -28 28 7 7 -13 32 -26 32 -6 0 -4 -8 3 -17 13
-16 12 -17 -4 -4 -9 8 -15 16 -12 19 7 7 -25 42 -38 42 -6 0 -2 -10 9 -22 17
-21 16 -21 -9 1 -15 14 -25 27 -22 29 7 7 -36 52 -48 52 -6 0 -2 -10 9 -22 10
-13 -3 -3 -29 22 -53 50 -65 70 -14 25 17 -16 -2 5 -43 48 -41 42 -77 77 -79
77 -3 0 10 -16 29 -35 19 -19 32 -35 29 -35 -3 0 -29 26 -59 57 -30 32 -43 47
-27 34 15 -14 27 -20 27 -14 0 12 -45 55 -52 48 -2 -3 -15 7 -29 22 -22 25
-22 26 -1 9 12 -11 22 -15 22 -9 0 13 -35 45 -42 38 -3 -3 -11 3 -19 12 -13
16 -12 17 4 4 9 -7 17 -9 17 -3 0 13 -25 33 -32 26 -3 -3 -16 10 -28 28 l-22
33 26 -30 c14 -16 26 -26 26 -22 0 14 -43 66 -51 61 -4 -2 -11 1 -15 7 -5 8
-3 9 6 4 8 -5 11 -3 8 6 -3 8 -10 14 -15 14 -6 0 -15 4 -20 9 -5 5 -3 6 5 2 6
-4 12 -4 12 -1 0 16 -92 160 -102 160 -6 0 -13 7 -15 15 -4 13 -3 13 6 0 22
-31 11 11 -18 68 -75 150 -149 397 -177 592 -18 129 -19 422 -3 543 7 48 15
87 18 87 2 0 33 -5 68 -11z m190 -31 c-3 -7 -5 -2 -5 12 0 14 2 19 5 13 2 -7
2 -19 0 -25z m-112 -48 c-4 -28 -9 -49 -12 -46 -3 2 -2 28 2 56 4 28 9 49 12
46 3 -2 2 -28 -2 -56z m-184 -61 c-5 -48 -9 -60 -10 -34 -1 42 9 118 15 112 2
-2 0 -37 -5 -78z m283 0 c-4 -41 -9 -68 -12 -61 -5 16 8 145 14 139 2 -2 1
-37 -2 -78z m3565 -28 c1 -57 -6 -30 -12 44 -4 54 -4 61 3 30 5 -22 9 -55 9
-74z m-3682 -253 c-1 -46 -3 -9 -3 82 0 91 2 128 3 83 2 -46 2 -120 0 -165z
m3690 40 c-2 -24 -4 -5 -4 42 0 47 2 66 4 43 2 -24 2 -62 0 -85z m-3590 25
c-2 -16 -4 -5 -4 22 0 28 2 40 4 28 2 -13 2 -35 0 -50z m-280 -5 c-3 -7 -5 -2
-5 12 0 14 2 19 5 13 2 -7 2 -19 0 -25z m296 -178 c3 -46 2 -63 -3 -45 -8 30
-13 132 -6 124 2 -2 6 -38 9 -79z m-286 -2 c-2 -13 -4 -3 -4 22 0 25 2 35 4
23 2 -13 2 -33 0 -45z m3848 -13 c-4 -37 -9 -65 -11 -62 -3 2 -2 34 2 71 4 37
9 64 12 62 2 -3 1 -35 -3 -71z m-3657 -85 c0 -16 -3 -11 -9 15 -4 22 -8 51 -7
65 0 16 3 11 9 -15 4 -22 8 -51 7 -65z m-181 33 c-3 -10 -5 -4 -5 12 0 17 2
24 5 18 2 -7 2 -21 0 -30z m301 -98 c0 -16 -2 -15 -8 5 -4 14 -8 36 -8 50 0
22 1 22 8 -5 4 -16 8 -39 8 -50z m3519 33 c-3 -7 -5 -2 -5 12 0 14 2 19 5 13
2 -7 2 -19 0 -25z m-3810 -15 c-3 -10 -5 -4 -5 12 0 17 2 24 5 18 2 -7 2 -21
0 -30z m191 -58 c0 -16 -2 -15 -8 5 -4 14 -8 34 -8 45 0 16 2 15 8 -5 4 -14 8
-34 8 -45z m3609 33 c-3 -8 -6 -5 -6 6 -1 11 2 17 5 13 3 -3 4 -12 1 -19z
m-3790 -20 c-3 -8 -6 -5 -6 6 -1 11 2 17 5 13 3 -3 4 -12 1 -19z m302 -58 c0
-9 -4 -8 -9 5 -5 11 -9 27 -9 35 0 9 4 8 9 -5 5 -11 9 -27 9 -35z m3477 14
c-4 -14 -9 -24 -12 -21 -3 2 -2 17 2 31 3 15 9 25 11 22 3 -3 2 -17 -1 -32z
m-3758 -49 c0 -16 -2 -15 -8 5 -4 14 -8 34 -8 45 0 16 2 15 8 -5 4 -14 8 -34
8 -45z m181 -5 c0 -9 -4 -8 -9 5 -5 11 -9 27 -9 35 0 9 4 8 9 -5 5 -11 9 -27
9 -35z m120 -30 c0 -9 -4 -8 -9 5 -5 11 -9 27 -9 35 0 9 4 8 9 -5 5 -11 9 -27
9 -35z m3431 3 c-11 -17 -11 -17 -6 0 3 10 6 24 7 30 0 9 2 9 5 0 3 -7 0 -20
-6 -30z m-3711 -38 c0 -5 -4 -3 -9 5 -5 8 -9 22 -9 30 0 16 17 -16 18 -35z
m180 -5 c0 -10 -3 -8 -9 5 -12 27 -12 43 0 25 5 -8 9 -22 9 -30z m120 -25 c0
-5 -4 -3 -9 5 -5 8 -9 22 -9 30 0 16 17 -16 18 -35z m3391 8 c-11 -17 -11 -17
-6 0 3 10 6 24 7 30 0 9 2 9 5 0 3 -7 0 -20 -6 -30z m-3671 -48 c0 -5 -4 -3
-9 5 -5 8 -9 22 -9 30 0 16 17 -16 18 -35z m181 5 c0 -13 -1 -13 -10 0 -5 8
-10 22 -10 30 0 13 1 13 10 0 5 -8 10 -22 10 -30z m120 -15 c0 -5 -5 -3 -10 5
-5 8 -10 20 -10 25 0 6 5 3 10 -5 5 -8 10 -19 10 -25z m3351 8 c-12 -20 -14
-14 -5 12 4 9 9 14 11 11 3 -2 0 -13 -6 -23z m-3632 -58 c0 -5 -4 -3 -9 5 -5
8 -9 22 -9 30 0 16 17 -16 18 -35z m180 5 c0 -10 -3 -8 -9 5 -12 27 -12 43 0
25 5 -8 9 -22 9 -30z m114 10 c3 -11 1 -18 -4 -14 -5 3 -9 12 -9 20 0 20 7 17
13 -6z m3307 -37 c-23 -41 -23 -38 0 20 8 21 16 34 18 28 2 -5 -6 -27 -18 -48z
m-3271 -48 c0 -5 -6 1 -14 15 -8 14 -14 30 -14 35 0 6 6 -1 14 -15 8 -14 14
-29 14 -35z m-72 -112 c-5 -4 -67 133 -66 145 0 4 16 -26 35 -67 19 -41 33
-76 31 -78z m-197 28 c-1 -12 -39 64 -39 79 0 8 8 -5 19 -29 11 -24 20 -46 20
-50z m3511 66 c-10 -9 -11 -8 -5 6 3 10 9 15 12 12 3 -3 0 -11 -7 -18z m-20
-40 c-10 -9 -11 -8 -5 6 3 10 9 15 12 12 3 -3 0 -11 -7 -18z m-3166 -47 c9
-16 13 -30 11 -30 -3 0 -12 14 -21 30 -9 17 -13 30 -11 30 3 0 12 -13 21 -30z
m-311 -6 c3 -8 2 -12 -4 -9 -6 3 -10 10 -10 16 0 14 7 11 14 -7z m226 -69 c0
-11 -14 7 -31 40 -7 13 -3 12 10 -5 11 -14 21 -29 21 -35z m-206 29 c3 -8 2
-12 -4 -9 -6 3 -10 10 -10 16 0 14 7 11 14 -7z m226 -64 c6 -11 8 -20 6 -20
-3 0 -10 9 -16 20 -6 11 -8 20 -6 20 3 0 10 -9 16 -20z m-141 -95 c13 -22 15
-31 6 -20 -18 22 -53 86 -38 70 6 -5 20 -28 32 -50z m511 -202 l75 -78 -77 75
c-43 41 -78 76 -78 77 0 8 11 -3 80 -74z m360 -279 c0 -2 -9 0 -20 6 -11 6
-20 13 -20 16 0 2 9 0 20 -6 11 -6 20 -13 20 -16z m70 -40 c0 -2 -13 2 -30 11
-16 9 -30 18 -30 21 0 2 14 -2 30 -11 17 -9 30 -18 30 -21z m1720 31 c0 -2
-13 -11 -30 -20 -38 -19 -40 -11 -2 9 31 17 32 18 32 11z m-1920 -42 c0 -7
-39 17 -46 28 -3 6 5 3 20 -6 14 -10 26 -19 26 -22z m280 -23 c30 -16 51 -29
45 -29 -5 0 -35 13 -65 29 -30 16 -50 29 -45 29 6 0 35 -13 65 -29z m-215 -15
l20 -16 -20 10 c-11 5 -29 17 -40 26 l-20 16 20 -10 c11 -5 29 -17 40 -26z
m1715 5 c-19 -11 -39 -19 -45 -19 -5 0 6 8 25 19 19 11 40 19 45 19 6 0 -6 -8
-25 -19z m-1665 -30 c3 -6 -1 -7 -9 -4 -18 7 -21 14 -7 14 6 0 13 -4 16 -10z
m255 0 c8 -5 11 -10 5 -10 -5 0 -17 5 -25 10 -8 5 -10 10 -5 10 6 0 17 -5 25
-10z m1340 0 c-8 -5 -19 -10 -25 -10 -5 0 -3 5 5 10 8 5 20 10 25 10 6 0 3 -5
-5 -10z m-1494 -58 c-5 -4 -86 36 -86 43 0 3 20 -5 45 -17 24 -12 43 -23 41
-26z m204 38 c8 -5 11 -10 5 -10 -5 0 -17 5 -25 10 -8 5 -10 10 -5 10 6 0 17
-5 25 -10z m1240 0 c-8 -5 -19 -10 -25 -10 -5 0 -3 5 5 10 8 5 20 10 25 10 6
0 3 -5 -5 -10z m-1180 -20 c18 -12 2 -12 -25 0 -13 6 -15 9 -5 9 8 0 22 -4 30
-9z m1125 0 c-27 -12 -43 -12 -25 0 8 5 22 9 30 9 10 0 8 -3 -5 -9z m-1060
-20 c13 -5 14 -9 5 -9 -8 0 -24 4 -35 9 -13 5 -14 9 -5 9 8 0 24 -4 35 -9z
m1000 0 c-11 -5 -27 -9 -35 -9 -9 0 -8 4 5 9 11 5 27 9 35 9 9 0 8 -4 -5 -9z
m-1570 -57 c11 -7 16 -13 12 -13 -10 0 -87 51 -87 57 0 5 27 -11 75 -44z m305
37 c8 -5 11 -10 5 -10 -5 0 -17 5 -25 10 -8 5 -10 10 -5 10 6 0 17 -5 25 -10z
m340 0 c20 -6 21 -8 5 -8 -11 0 -29 3 -40 8 -25 11 1 11 35 0z m855 0 c-11 -5
-29 -8 -40 -8 -16 0 -15 2 5 8 34 11 60 11 35 0z m-1150 -20 c3 -6 -1 -7 -9
-4 -18 7 -21 14 -7 14 6 0 13 -4 16 -10z m424 -6 c9 -8 -55 -2 -74 6 -13 6 -5
7 25 3 25 -3 47 -7 49 -9z m636 6 c-11 -5 -31 -8 -45 -8 -23 0 -22 1 5 8 42
11 65 11 40 0z m-1005 -20 c18 -12 2 -12 -25 0 -13 6 -15 9 -5 9 8 0 22 -4 30
-9z m549 -6 c8 -7 -84 -3 -124 6 -29 6 -17 7 40 3 44 -3 82 -7 84 -9z m326 5
c-22 -4 -60 -7 -85 -7 l-45 1 55 7 c30 4 69 7 85 7 24 1 23 -1 -10 -8z m-1215
-35 c0 -2 -9 0 -20 6 -11 6 -20 13 -20 16 0 2 9 0 20 -6 11 -6 20 -13 20 -16z
m400 16 c18 -12 2 -12 -25 0 -13 6 -15 9 -5 9 8 0 22 -4 30 -9z m65 -20 c13
-5 14 -9 5 -9 -8 0 -24 4 -35 9 -13 5 -14 9 -5 9 8 0 24 -4 35 -9z m-410 -28
c-3 -3 -11 0 -18 7 -9 10 -8 11 6 5 10 -3 15 -9 12 -12z m485 8 c20 -6 21 -8
5 -8 -11 0 -29 3 -40 8 -25 11 1 11 35 0z m-445 -28 c-3 -3 -11 0 -18 7 -9 10
-8 11 6 5 10 -3 15 -9 12 -12z m535 8 c20 -6 21 -8 5 -8 -11 0 -31 4 -45 8
-20 6 -21 8 -5 8 11 0 31 -4 45 -8z m-495 -28 c-3 -3 -11 0 -18 7 -9 10 -8 11
6 5 10 -3 15 -9 12 -12z m664 2 c8 -7 -63 -2 -94 7 -20 5 -9 6 30 2 33 -3 62
-7 64 -9z m476 5 c-22 -4 -51 -8 -65 -7 -35 1 34 15 75 16 25 0 23 -2 -10 -9z
m-1095 -19 c8 -5 11 -10 5 -10 -5 0 -17 5 -25 10 -8 5 -10 10 -5 10 6 0 17 -5
25 -10z m888 3 c-43 -2 -113 -2 -155 0 -43 1 -8 3 77 3 85 0 120 -2 78 -3z
m269 -35 c-3 -7 -5 -2 -5 12 0 14 2 19 5 13 2 -7 2 -19 0 -25z m-1107 12 c8
-5 11 -10 5 -10 -5 0 -17 5 -25 10 -8 5 -10 10 -5 10 6 0 17 -5 25 -10z m50
-20 c8 -5 11 -10 5 -10 -5 0 -17 5 -25 10 -8 5 -10 10 -5 10 6 0 17 -5 25 -10z
m115 -40 c13 -6 15 -9 5 -9 -8 0 -22 4 -30 9 -18 12 -2 12 25 0z m952 -27 c-3
-10 -5 -4 -5 12 0 17 2 24 5 18 2 -7 2 -21 0 -30z m-860 1 c-3 -3 -12 -4 -19
-1 -8 3 -5 6 6 6 11 1 17 -2 13 -5z m68 -14 c25 -11 -1 -11 -35 0 -20 6 -21 8
-5 8 11 0 29 -3 40 -8z m134 -26 c8 -7 -54 -2 -79 6 -17 6 -9 7 25 3 28 -3 52
-7 54 -9z m634 -1 c-7 -2 -19 -2 -25 0 -7 3 -2 5 12 5 14 0 19 -2 13 -5z
m-424 -19 c8 -7 -104 -3 -149 6 -31 5 -15 6 50 3 52 -3 97 -7 99 -9z m336 6
c-16 -4 -55 -7 -85 -7 l-55 0 60 7 c33 4 71 7 85 7 22 1 21 0 -5 -7z m-372
-87 c-7 -2 -21 -2 -30 0 -10 3 -4 5 12 5 17 0 24 -2 18 -5z m290 0 c-7 -2 -19
-2 -25 0 -7 3 -2 5 12 5 14 0 19 -2 13 -5z"/>
<path d="M7465 8050 c3 -5 16 -15 28 -21 22 -12 22 -12 3 10 -19 21 -43 30
-31 11z"/>
<path d="M7644 7891 c44 -44 82 -78 85 -75 6 6 -118 132 -144 146 -11 6 16
-26 59 -71z"/>
<path d="M5045 7788 l-60 -63 63 60 c58 55 67 65 59 65 -1 0 -29 -28 -62 -62z"/>
<path d="M6242 6683 c-158 -78 -109 -313 66 -313 85 0 141 43 163 123 35 130
-109 249 -229 190z m135 -12 c98 -45 118 -171 39 -249 -29 -30 -43 -36 -89
-40 -59 -5 -96 9 -134 50 -42 45 -46 136 -9 194 20 29 88 64 126 64 14 0 44
-9 67 -19z"/>
<path d="M7688 5413 c-29 -34 -30 -48 -2 -21 15 15 26 30 23 33 -3 3 -13 -3
-21 -12z"/>
</g>
</svg>
